# xmcd
#
# Track frame offsets:
#	150
#	4162
#	22707
#	40700
#	59210
#	73448
#	93242
#	109450
#	123601
#	139877
#	158816
#	172678
#	187362
#	205509
#	217489
#	233038
#	245214
#	269054
#	281294
#	303550
#	319877
#
# Disc length: 4327 seconds
#
# Revision: 19
# Processed by: cddbd v1.5.1PL0 Copyright (c) Steve Scherf et al.
# Submitted via: audiograbber 1.82.02
#
DISCID=4910e515
DTITLE=Bob Wills' Texas Playboys - Live May 21, 2000
DYEAR=2000
DGENRE=Country
TTITLE0=Playboys Theme 1
TTITLE1=San Antonio Rose
TTITLE2=Right or Wrong
TTITLE3=My Life's Been A Pleaseure
TTITLE4=Red Skin Gal
TTITLE5=Faded Love
TTITLE6=Bring It On Down To My House
TTITLE7=Westphalia Waltz
TTITLE8=Big Beaver
TTITLE9=Trouble in Mind
TTITLE10=Cherokee Maiden
TTITLE11=Roly Poly
TTITLE12=Misery
TTITLE13=Miss Molly
TTITLE14=My Mary
TTITLE15=Panhandle Rag
TTITLE16=Milk Cow Blues
TTITLE17=Tater Pie
TTITLE18=Tuxedo Junction
TTITLE19=Four Or Five Times
TTITLE20=Playboys Theme 2
EXTD=Southland Records CD recorded Live May 21, 2000 at the Southern Junction i
EXTD=n Rockwall, TX\nFeaturing Legendary Western Swing Vocalist Leon Rausch
EXTT0=
EXTT1=
EXTT2=
EXTT3=
EXTT4=
EXTT5=
EXTT6=
EXTT7=
EXTT8=
EXTT9=
EXTT10=
EXTT11=
EXTT12=
EXTT13=Featuring Mark Abbott on Vocals
EXTT14=
EXTT15=
EXTT16=
EXTT17=Featuring Tommy Allsop on Vocals
EXTT18=
EXTT19=
EXTT20=
PLAYORDER=
